<?xml version="1.0" encoding="utf-8"?>
<!-- Generator: Adobe Illustrator 16.0.0, SVG Export Plug-In . SVG Version: 6.00 Build 0)  -->
<!DOCTYPE svg PUBLIC "-//W3C//DTD SVG 1.1//EN" "http://www.w3.org/Graphics/SVG/1.1/DTD/svg11.dtd">
<svg version="1.1" id="Layer_1" xmlns="http://www.w3.org/2000/svg" xmlns:xlink="http://www.w3.org/1999/xlink" x="0px" y="0px"
	 width="64.565px" height="30px" viewBox="45.624 21.199 64.565 30" enable-background="new 45.624 21.199 64.565 30"
	 xml:space="preserve">
<g id="Layer_1_1_">
	<g>
		<path fill="#EEEE00" d="M59.371,47.13c-0.101,0-0.189-0.038-0.268-0.09c-5.684-1.439-9.889-6.588-9.889-12.719
			c0-2.578,0.746-4.979,2.029-7.006c-3.396,2.371-5.619,6.306-5.619,10.763c0,7.246,5.875,13.121,13.122,13.121
			c3.735,0,7.101-1.564,9.489-4.069H59.371z"/>
		<path fill="#009CCE" d="M62.337,21.199c-4.67,0-8.768,2.442-11.093,6.116c2.127-1.485,4.712-2.359,7.503-2.359
			c3.806,0,7.232,1.623,9.628,4.211c1.322,0.609,1.999,1.651,2.16,3.146c0.853,1.74,1.333,3.696,1.333,5.766
			c0,2.303-0.599,4.463-1.64,6.344c0.078,0.065,0.125,0.159,0.139,0.27c3.096-2.399,5.091-6.149,5.091-10.37
			C75.458,27.074,69.583,21.199,62.337,21.199z"/>
		<path fill="#9EC638" d="M70.534,32.312c0.025,0.235,0.042,0.478,0.042,0.736c0,2.058-1.066,3.446-3.099,4.81l-2.231,1.487
			c-2.331,1.562-3.521,2.802-3.521,4.859v0.1h8.157c0.134,0,0.255,0.042,0.344,0.117c1.042-1.881,1.641-4.041,1.641-6.344
			C71.868,36.009,71.387,34.053,70.534,32.312z M62.643,37.709l2.455-1.636c1.909-1.264,2.281-1.661,2.281-3.024
			c0-1.339-0.843-1.834-2.9-1.834c-1.463,0-3.471,0.198-4.958,0.372c-0.025,0-0.025,0-0.05,0c-0.273,0-0.446-0.224-0.446-0.496
			v-1.488c0-0.248,0.223-0.396,0.471-0.471c1.289-0.347,3.372-0.62,4.983-0.62c1.664,0,2.945,0.217,3.896,0.656
			c-2.396-2.588-5.822-4.211-9.628-4.211c-2.791,0-5.376,0.874-7.503,2.359c-1.283,2.027-2.028,4.429-2.028,7.006
			c0,6.094,4.154,11.217,9.786,12.694c0.029,0.008,0.059,0.009,0.088,0.015c-0.126-0.09-0.214-0.23-0.214-0.396v-2.43
			C58.875,41.478,60.586,39.073,62.643,37.709z"/>
		<path d="M88.872,46.907c-1.24,0.247-2.853,0.421-5.405,0.421c-2.678,0-6.645-1.76-6.645-7.61v-3.571
			c0-5.875,3.769-7.636,6.719-7.636c2.38,0,4.513,0.297,5.331,0.446c0.321,0.074,0.471,0.199,0.471,0.521v1.661
			c0,0.348-0.1,0.521-0.496,0.521c-0.024,0-0.05,0-0.074,0c-1.141-0.099-2.852-0.199-5.231-0.199c-1.661,0-3.247,1.166-3.247,4.686
			v3.571c0,3.52,1.71,4.66,3.173,4.66c0.918,0,1.686-0.024,2.454-0.074v-6.321c0-0.272,0.198-0.495,0.472-0.495h2.454
			c0.272,0,0.496,0.223,0.496,0.495v8.33C89.342,46.634,89.194,46.832,88.872,46.907z"/>
		<path d="M95.415,47.13H92.96c-0.271,0-0.495-0.223-0.495-0.496V29.18c0-0.272,0.224-0.471,0.495-0.471h2.455
			c0.272,0,0.496,0.198,0.496,0.471v17.454C95.911,46.907,95.688,47.13,95.415,47.13z"/>
		<path d="M103.67,47.328c-1.859,0-3.198-0.174-4.388-0.446c-0.249-0.05-0.472-0.223-0.472-0.495v-1.785
			c0-0.273,0.223-0.472,0.472-0.472c0.024,0,0.024,0,0.049,0c0.992,0.124,3.471,0.248,4.389,0.248c2.206,0,2.875-0.793,2.875-2.231
			c0-0.967-0.471-1.463-2.107-2.429l-3.271-1.959c-2.306-1.364-2.926-2.801-2.926-4.537c0-2.727,1.586-4.71,6.197-4.71
			c1.637,0,3.917,0.248,4.761,0.446c0.248,0.05,0.446,0.223,0.446,0.471v1.835c0,0.248-0.174,0.446-0.422,0.446
			c-0.025,0-0.025,0-0.05,0c-1.636-0.148-3.272-0.248-4.884-0.248c-1.835,0-2.603,0.645-2.603,1.76c0,0.818,0.421,1.314,2.032,2.207
			l2.976,1.661c2.727,1.513,3.445,3.1,3.445,5.058C110.19,44.651,108.628,47.328,103.67,47.328z"/>
		<path fill="#FFFFFF" d="M67.478,37.859l-2.231,1.487c-2.331,1.562-3.521,2.801-3.521,4.859v0.099h8.157
			c0.273,0,0.496,0.174,0.496,0.446v1.884c0,0.273-0.223,0.496-0.496,0.496H59.371c-0.273,0-0.496-0.223-0.496-0.496v-2.429
			c0-2.728,1.71-5.133,3.768-6.496l2.455-1.636c1.909-1.264,2.281-1.661,2.281-3.024c0-1.339-0.843-1.834-2.9-1.834
			c-1.463,0-3.471,0.198-4.958,0.372c-0.025,0-0.025,0-0.05,0c-0.273,0-0.446-0.224-0.446-0.496v-1.488
			c0-0.248,0.223-0.396,0.471-0.471c1.289-0.347,3.372-0.62,4.983-0.62c4.338,0,6.099,1.463,6.099,4.537
			C70.577,35.106,69.511,36.494,67.478,37.859z"/>
	</g>
</g>
<g id="Layer_2">
</g>
</svg>
