<?xml version="1.0" encoding="utf-8"?>
<!-- Generator: Adobe Illustrator 24.0.1, SVG Export Plug-In . SVG Version: 6.00 Build 0)  -->
<svg version="1.1" id="Capa_1" xmlns="http://www.w3.org/2000/svg" xmlns:xlink="http://www.w3.org/1999/xlink" x="0px" y="0px"
	 viewBox="0 0 354.5 490" style="enable-background:new 0 0 354.5 490;" xml:space="preserve">
<style type="text/css">
	.st0{fill:#FFA00E;}
</style>
<g>
	<path class="st0" d="M300.7,0H53.8C24.1,0,0,24.1,0,53.8v382.4C0,465.9,24.1,490,53.8,490h246.9c29.7,0,53.8-24.1,53.8-53.8V53.8
		C354.5,24.1,330.3,0,300.7,0z M333.6,436.2c0,18.2-14.8,32.9-32.9,32.9H53.8c-18.2,0-32.9-14.8-32.9-32.9V53.8
		c0-18.2,14.8-32.9,32.9-32.9h246.9c18.2,0,32.9,14.8,32.9,32.9L333.6,436.2L333.6,436.2z"/>
	<path class="st0" d="M62.6,174h229.4V62.6H62.6V174z M83.4,83.4h187.7v69.8H83.4V83.4z"/>
	<rect x="83.8" y="274.4" class="st0" width="31.3" height="20.9"/>
	<rect x="161.6" y="274.4" class="st0" width="31.3" height="20.9"/>
	<rect x="239.4" y="274.4" class="st0" width="31.3" height="20.9"/>
	<rect x="83.8" y="340.5" class="st0" width="31.3" height="20.9"/>
	<rect x="161.6" y="340.5" class="st0" width="31.3" height="20.9"/>
	<rect x="239.4" y="340.5" class="st0" width="31.3" height="20.9"/>
	<rect x="83.8" y="406.6" class="st0" width="31.3" height="20.9"/>
	<rect x="161.6" y="406.6" class="st0" width="31.3" height="20.9"/>
	<rect x="239.4" y="406.6" class="st0" width="31.3" height="20.9"/>
	<rect x="222.9" y="213.8" class="st0" width="62.6" height="20.9"/>
	<rect x="69" y="213.8" class="st0" width="62.6" height="20.9"/>
</g>
</svg>
