<?xml version="1.0" encoding="utf-8"?>
<!-- Generator: Adobe Illustrator 22.0.1, SVG Export Plug-In . SVG Version: 6.00 Build 0)  -->
<svg fill="#2f96d1" version="1.1" id="Layer_1" xmlns="http://www.w3.org/2000/svg" xmlns:xlink="http://www.w3.org/1999/xlink" x="0px" y="0px"
	 viewBox="0 0 22 22" style="enable-background:new 0 0 22 22;" xml:space="preserve">
<g>
	<path d="M11,0C4.9,0,0,4.9,0,11c0,6.1,4.9,11,11,11s11-4.9,11-11C22,4.9,17.1,0,11,0z M11,20c-5,0-9-4-9-9s4-9,9-9c5,0,9,4,9,9
		S16,20,11,20z"/>
	<path d="M15.4,12.1L12,10.4V5c0-0.6-0.4-1-1-1s-1,0.4-1,1v6c0,0.4,0.2,0.7,0.6,0.9l4,2C14.7,14,14.8,14,15,14
		c0.4,0,0.7-0.2,0.9-0.6C16.1,13,15.9,12.4,15.4,12.1z"/>
</g>
</svg>
