<?xml version="1.0" encoding="utf-8"?>
<!-- Generator: Adobe Illustrator 22.0.1, SVG Export Plug-In . SVG Version: 6.00 Build 0)  -->
<svg version="1.1" id="Capa_1" xmlns="http://www.w3.org/2000/svg" xmlns:xlink="http://www.w3.org/1999/xlink" x="0px" y="0px"
	 viewBox="0 0 224.1 224.1" style="enable-background:new 0 0 224.1 224.1;" xml:space="preserve">
<style type="text/css">
	.st0{fill:#000001;}
</style>
<g>
	<path class="st0" d="M221.1,101.6L117.2,2.1C115.8,0.7,113.9,0,112,0s-3.7,0.7-5.2,2.1L2.7,102c-2.2,2.1-2.9,5.4-1.8,8.2
		c1.1,2.8,3.9,4.7,7,4.7h13.3v101.7c0,4.1,3.4,7.5,7.5,7.5h166.6c4.1,0,7.5-3.4,7.5-7.5V114.9h13.3c0,0,0,0,0,0
		c4.1,0,7.5-3.4,7.5-7.5C223.7,105.1,222.7,103,221.1,101.6z M189.9,114.9v96.2H34.2v-96.2c0-7.1-5.6-12.8-12.7-13L112,15.1
		l90.5,86.8C195.5,102.1,189.9,107.8,189.9,114.9z"/>
	<path class="st0" d="M77.9,183.9c1.4,1,3,1.6,4.6,1.6c2.2,0,4.5-1,6-2.9l58.5-76.2c2.5-3.3,1.9-8-1.4-10.5c-3.3-2.5-8-1.9-10.5,1.4
		l-58.5,76.2C74,176.6,74.7,181.3,77.9,183.9z"/>
	<path class="st0" d="M126.5,161c0,13.5,11,24.4,24.4,24.4c13.5,0,24.4-11,24.4-24.4c0-13.5-11-24.4-24.4-24.4
		C137.4,136.5,126.5,147.5,126.5,161z M150.9,150c6,0,11,4.9,11,11s-4.9,11-11,11s-11-4.9-11-11S144.9,150,150.9,150z"/>
	<path class="st0" d="M97.4,119c0-13.5-11-24.4-24.4-24.4c-13.5,0-24.4,11-24.4,24.4c0,13.5,11,24.4,24.4,24.4
		C86.4,143.4,97.4,132.5,97.4,119z M72.9,130c-6,0-11-4.9-11-11s4.9-11,11-11c6,0,11,4.9,11,11S79,130,72.9,130z"/>
</g>
</svg>
