<?xml version="1.0" encoding="utf-8"?>
<!-- Generator: Adobe Illustrator 24.0.1, SVG Export Plug-In . SVG Version: 6.00 Build 0)  -->
<svg version="1.1" id="Layer_1" xmlns="http://www.w3.org/2000/svg" xmlns:xlink="http://www.w3.org/1999/xlink" x="0px" y="0px"
	 viewBox="0 0 139.1 120" style="enable-background:new 0 0 139.1 120;" xml:space="preserve">
<style type="text/css">
	.st0{fill:#3d7baf;}
</style>
<path class="st0" d="M66.7,0L0,60h20v53.3h40v-40h13.3v14.1l13.3-13.3V60h-40v40H33.3V47.9l33.3-30l33.3,30v12.8l16.2-16.2L66.7,0
	 M126.9,54.3c-0.9,0-1.9,0.4-2.6,1.1l-6.7,6.7l13.7,13.7L138,69c1.4-1.4,1.4-3.7,0-5.1l-8.5-8.5C128.8,54.7,127.9,54.3,126.9,54.3
	 M113.7,65.9l-40.4,40.4V120h13.7l40.3-40.5L113.7,65.9z"/>
</svg>
