<?xml version="1.0" encoding="utf-8"?>
<!-- Generator: Adobe Illustrator 16.0.0, SVG Export Plug-In . SVG Version: 6.00 Build 0)  -->
<!DOCTYPE svg PUBLIC "-//W3C//DTD SVG 1.1//EN" "http://www.w3.org/Graphics/SVG/1.1/DTD/svg11.dtd">
<svg version="1.1" id="Layer_1" xmlns="http://www.w3.org/2000/svg" xmlns:xlink="http://www.w3.org/1999/xlink" x="0px" y="0px"
	 width="418.697px" height="124.386px" viewBox="0 0 418.697 124.386" enable-background="new 0 0 418.697 124.386"
	 xml:space="preserve">
<g>
	<g>
		<path fill="#8895A5" d="M113.187,91.103h8.315v9.519h-1.824v-7.958h-4.666v7.958h-1.825V91.103z"/>
		<path fill="#8895A5" d="M124.357,91.103h1.693v0.846c0,0.396-0.057,0.715-0.057,0.715h0.038c0.603-1.147,1.807-1.787,3.199-1.787
			c2.577,0,4.175,2.031,4.175,4.985c0,3.029-1.805,4.985-4.308,4.985c-1.204,0-2.296-0.602-2.953-1.618h-0.038
			c0,0,0.076,0.339,0.076,0.828v4.327h-1.826V91.103z M128.816,99.267c1.505,0,2.747-1.223,2.747-3.387
			c0-2.068-1.11-3.404-2.69-3.404c-1.43,0-2.746,1.016-2.746,3.424C126.127,97.593,127.067,99.267,128.816,99.267z"/>
		<path fill="#8895A5" d="M140.2,90.876c2.841,0,5.136,2.088,5.136,4.967c0,2.896-2.295,5.004-5.115,5.004
			c-2.842,0-5.137-2.107-5.137-5.004C135.084,92.964,137.379,90.876,140.2,90.876z M140.221,99.267c1.786,0,3.272-1.43,3.272-3.424
			c0-1.976-1.486-3.387-3.272-3.387c-1.806,0-3.274,1.411-3.274,3.387C136.946,97.837,138.415,99.267,140.221,99.267z"/>
		<path fill="#8895A5" d="M151.772,90.876c2.691,0,4.119,2.014,4.119,4.459c0,0.244-0.037,0.508-0.073,0.771h-6.924
			c0.094,2.051,1.562,3.16,3.274,3.16c1.016,0,2.05-0.434,2.802-1.109l0.771,1.335c-0.922,0.847-2.37,1.354-3.687,1.354
			c-2.992,0-5.061-2.163-5.061-4.985C146.995,92.833,149.063,90.876,151.772,90.876z M154.049,94.789
			c-0.056-1.635-1.071-2.5-2.313-2.5c-1.411,0-2.521,0.921-2.785,2.5H154.049z"/>
		<path fill="#8895A5" d="M158.229,91.103h1.824v3.837h1.336l2.597-3.837h2.068l-3.179,4.533v0.037l3.556,4.948h-2.164l-2.841-4.12
			h-1.373v4.12h-1.824V91.103z"/>
		<path fill="#8895A5" d="M170.717,92.664h-3.311v-1.561h8.445v1.561h-3.329v7.958h-1.806V92.664z"/>
		<path fill="#8895A5" d="M177.603,91.103h1.751v5.682c0,0.508-0.039,1.184-0.058,1.277h0.038c0.074-0.168,0.525-0.826,0.846-1.277
			l4.102-5.682h1.77v9.519h-1.77V94.94c0-0.452,0.057-1.109,0.057-1.261H184.3c-0.056,0.17-0.526,0.809-0.828,1.261l-4.118,5.682
			h-1.751V91.103z"/>
		<path fill="#8895A5" d="M188.896,91.103h1.692v0.846c0,0.396-0.057,0.715-0.057,0.715h0.038c0.603-1.147,1.806-1.787,3.199-1.787
			c2.576,0,4.175,2.031,4.175,4.985c0,3.029-1.806,4.985-4.308,4.985c-1.204,0-2.296-0.602-2.953-1.618h-0.038
			c0,0,0.076,0.339,0.076,0.828v4.327h-1.825V91.103z M193.354,99.267c1.505,0,2.747-1.223,2.747-3.387
			c0-2.068-1.11-3.404-2.689-3.404c-1.431,0-2.748,1.016-2.748,3.424C190.664,97.593,191.605,99.267,193.354,99.267z"/>
		<path fill="#8895A5" d="M204.739,90.876c2.841,0,5.136,2.088,5.136,4.967c0,2.896-2.295,5.004-5.117,5.004
			c-2.841,0-5.136-2.107-5.136-5.004C199.622,92.964,201.917,90.876,204.739,90.876z M204.758,99.267
			c1.787,0,3.273-1.43,3.273-3.424c0-1.976-1.486-3.387-3.273-3.387c-1.805,0-3.273,1.411-3.273,3.387
			C201.484,97.837,202.953,99.267,204.758,99.267z"/>
		<path fill="#8895A5" d="M212.125,91.103h3.933c1.919,0,3.179,0.846,3.179,2.445c0,0.922-0.489,1.712-1.354,2.088v0.019
			c1.185,0.282,1.806,1.204,1.806,2.257c0,1.77-1.431,2.71-3.5,2.71h-4.063V91.103z M215.737,95.128
			c1.091,0,1.637-0.564,1.637-1.449c0-0.865-0.546-1.316-1.693-1.316h-1.73v2.766H215.737z M215.906,99.342
			c1.317,0,1.938-0.603,1.938-1.487c0-0.939-0.696-1.504-1.956-1.504h-1.938v2.991H215.906z"/>
		<path fill="#8895A5" d="M226.943,94.696h0.489v-0.188c0-1.561-0.902-2.088-2.089-2.088c-0.94,0-1.899,0.376-2.671,0.922
			l-0.733-1.336c0.771-0.64,2.22-1.129,3.556-1.129c2.389,0,3.763,1.317,3.763,3.725v6.021h-1.713v-0.96
			c0-0.433,0.056-0.752,0.056-0.752h-0.037c-0.545,1.092-1.711,1.938-3.122,1.938c-1.656,0-3.18-1.035-3.18-2.822
			C221.262,95.035,224.968,94.696,226.943,94.696z M224.873,99.4c1.6,0,2.56-1.619,2.56-3.03v-0.357h-0.47
			c-1.354,0-3.876,0.113-3.876,1.863C223.087,98.626,223.688,99.4,224.873,99.4z"/>
		<path fill="#8895A5" d="M232.031,91.103h1.825v3.875h4.816v-3.875h1.825v9.519h-1.825v-4.083h-4.816v4.083h-1.825V91.103z"/>
		<path fill="#8895A5" d="M243.354,91.103h1.75v5.682c0,0.508-0.037,1.184-0.057,1.277h0.037c0.076-0.168,0.527-0.826,0.848-1.277
			l4.102-5.682h1.768v9.519h-1.768V94.94c0-0.452,0.056-1.109,0.056-1.261h-0.038c-0.057,0.17-0.526,0.809-0.828,1.261l-4.119,5.682
			h-1.75V91.103z"/>
		<path fill="#8895A5" d="M258.845,90.876c2.69,0,4.119,2.014,4.119,4.459c0,0.244-0.037,0.508-0.074,0.771h-6.923
			c0.094,2.051,1.562,3.16,3.273,3.16c1.016,0,2.051-0.434,2.802-1.109l0.772,1.335c-0.922,0.847-2.37,1.354-3.687,1.354
			c-2.992,0-5.062-2.163-5.062-4.985C254.066,92.833,256.136,90.876,258.845,90.876z M261.12,94.789
			c-0.055-1.635-1.071-2.5-2.312-2.5c-1.411,0-2.521,0.921-2.785,2.5H261.12z"/>
		<path fill="#8895A5" d="M269.867,91.103h1.751v5.682c0,0.508-0.039,1.184-0.058,1.277h0.037c0.076-0.168,0.527-0.826,0.847-1.277
			l4.103-5.682h1.769v9.519h-1.769V94.94c0-0.452,0.056-1.109,0.056-1.261h-0.038c-0.056,0.17-0.526,0.809-0.828,1.261l-4.118,5.682
			h-1.751V91.103z"/>
		<path fill="#8895A5" d="M290.297,90.876c1.26,0,2.67,0.433,3.574,1.393l-0.865,1.279c-0.641-0.641-1.637-1.092-2.635-1.092
			c-1.918,0-3.311,1.449-3.311,3.387s1.393,3.424,3.367,3.424c1.053,0,2.201-0.508,2.935-1.279l0.733,1.336
			c-0.864,0.922-2.313,1.523-3.799,1.523c-3.01,0-5.099-2.125-5.099-4.985C285.198,93.041,287.305,90.876,290.297,90.876z"/>
		<path fill="#8895A5" d="M298.635,92.664h-3.312v-1.561h8.446v1.561h-3.33v7.958h-1.805V92.664z"/>
		<path fill="#8895A5" d="M305.521,91.103h1.693v0.846c0,0.396-0.056,0.715-0.056,0.715h0.037c0.602-1.147,1.805-1.787,3.198-1.787
			c2.577,0,4.177,2.031,4.177,4.985c0,3.029-1.807,4.985-4.309,4.985c-1.204,0-2.295-0.602-2.953-1.618h-0.037
			c0,0,0.074,0.339,0.074,0.828v4.327h-1.825V91.103z M309.979,99.267c1.506,0,2.748-1.223,2.748-3.387
			c0-2.068-1.111-3.404-2.691-3.404c-1.43,0-2.746,1.016-2.746,3.424C307.289,97.593,308.23,99.267,309.979,99.267z"/>
		<path fill="#8895A5" d="M321.363,90.876c2.84,0,5.135,2.088,5.135,4.967c0,2.896-2.295,5.004-5.115,5.004
			c-2.842,0-5.137-2.107-5.137-5.004C316.246,92.964,318.541,90.876,321.363,90.876z M321.383,99.267
			c1.786,0,3.271-1.43,3.271-3.424c0-1.976-1.485-3.387-3.271-3.387c-1.807,0-3.275,1.411-3.275,3.387
			C318.107,97.837,319.576,99.267,321.383,99.267z"/>
		<path fill="#8895A5" d="M328.75,91.103h1.75v5.682c0,0.508-0.037,1.184-0.058,1.277h0.038c0.075-0.168,0.526-0.826,0.847-1.277
			l4.102-5.682h1.769v9.519h-1.769V94.94c0-0.452,0.056-1.109,0.056-1.261h-0.037c-0.057,0.17-0.527,0.809-0.828,1.261l-4.119,5.682
			h-1.75V91.103z"/>
		<path fill="#8895A5" d="M342.258,92.664h-3.311v-1.561h8.445v1.561h-3.329v7.958h-1.806V92.664z"/>
		<path fill="#8895A5" d="M353.217,90.876c2.69,0,4.12,2.014,4.12,4.459c0,0.244-0.038,0.508-0.075,0.771h-6.924
			c0.095,2.051,1.562,3.16,3.274,3.16c1.016,0,2.051-0.434,2.802-1.109l0.773,1.335c-0.922,0.847-2.371,1.354-3.688,1.354
			c-2.991,0-5.06-2.163-5.06-4.985C348.439,92.833,350.508,90.876,353.217,90.876z M355.492,94.789
			c-0.056-1.635-1.071-2.5-2.313-2.5c-1.41,0-2.521,0.921-2.784,2.5H355.492z"/>
		<path fill="#8895A5" d="M358.705,99.08c1.392-0.209,2.145-1.6,2.145-5.043v-2.934h6.378v9.519h-1.825v-8.015h-2.804v1.43
			c0,4.309-1.091,6.529-3.894,6.679V99.08z"/>
		<path fill="#8895A5" d="M370.083,91.103h1.825v3.441h1.918c1.976,0,3.463,0.903,3.463,3.066c0,1.789-1.092,3.011-3.5,3.011h-3.706
			V91.103z M373.543,99.304c1.318,0,1.882-0.715,1.882-1.711c0-1.017-0.563-1.731-1.882-1.731h-1.635v3.442H373.543z"/>
		<path fill="#8895A5" d="M383.868,90.876c1.261,0,2.671,0.433,3.575,1.393l-0.866,1.279c-0.64-0.641-1.638-1.092-2.633-1.092
			c-1.92,0-3.312,1.449-3.312,3.387s1.392,3.424,3.367,3.424c1.053,0,2.201-0.508,2.935-1.279l0.733,1.336
			c-0.864,0.922-2.312,1.523-3.8,1.523c-3.011,0-5.097-2.125-5.097-4.985C378.771,93.041,380.877,90.876,383.868,90.876z"/>
		<path fill="#8895A5" d="M392.205,92.664h-3.311v-1.561h8.447v1.561h-3.33v7.958h-1.807V92.664z"/>
		<path fill="#8895A5" d="M399.093,91.103h3.932c1.919,0,3.179,0.846,3.179,2.445c0,0.922-0.488,1.712-1.354,2.088v0.019
			c1.185,0.282,1.807,1.204,1.807,2.257c0,1.77-1.431,2.71-3.501,2.71h-4.062V91.103z M402.704,95.128
			c1.091,0,1.638-0.564,1.638-1.449c0-0.865-0.547-1.316-1.693-1.316h-1.731v2.766H402.704z M402.873,99.342
			c1.317,0,1.939-0.603,1.939-1.487c0-0.939-0.697-1.504-1.957-1.504h-1.938v2.991H402.873z"/>
		<path fill="#8895A5" d="M413.381,90.876c2.841,0,5.136,2.088,5.136,4.967c0,2.896-2.295,5.004-5.116,5.004
			c-2.841,0-5.136-2.107-5.136-5.004C408.265,92.964,410.56,90.876,413.381,90.876z M413.4,99.267c1.786,0,3.272-1.43,3.272-3.424
			c0-1.976-1.486-3.387-3.272-3.387c-1.807,0-3.274,1.411-3.274,3.387C410.126,97.837,411.594,99.267,413.4,99.267z"/>
	</g>
	<g>
		<path fill="#8895A5" d="M113.85,118.253c0.434,0.451,1.337,1.129,2.483,1.129c1.092,0,1.977-0.527,1.977-1.562
			c0-0.922-0.621-1.448-1.956-1.448h-1.167v-1.317h0.996c1.073,0,1.807-0.413,1.807-1.373c0-0.884-0.641-1.373-1.693-1.373
			c-0.827,0-1.58,0.283-2.312,0.828l-0.678-1.223c0.733-0.547,1.807-1.035,3.311-1.035c1.806,0,3.216,0.885,3.216,2.577
			c0,1.186-0.639,1.843-1.391,2.163v0.038c0.959,0.302,1.711,1.017,1.711,2.239c0,1.957-1.693,2.953-3.649,2.953
			c-1.467,0-2.709-0.639-3.499-1.392L113.85,118.253z"/>
		<path fill="#8895A5" d="M127.39,114.697h0.488v-0.187c0-1.562-0.902-2.089-2.089-2.089c-0.939,0-1.898,0.376-2.67,0.922
			l-0.734-1.336c0.771-0.641,2.221-1.129,3.556-1.129c2.389,0,3.763,1.317,3.763,3.725v6.021h-1.712v-0.96
			c0-0.432,0.056-0.752,0.056-0.752h-0.037c-0.546,1.092-1.712,1.938-3.122,1.938c-1.656,0-3.18-1.034-3.18-2.822
			C121.708,115.037,125.414,114.697,127.39,114.697z M125.318,119.402c1.6,0,2.56-1.619,2.56-3.03v-0.357h-0.471
			c-1.354,0-3.874,0.113-3.874,1.863C123.533,118.628,124.135,119.402,125.318,119.402z"/>
		<path fill="#8895A5" d="M132.478,111.105h5.965v1.561h-4.138v7.958h-1.827V111.105z"/>
		<path fill="#8895A5" d="M144.545,110.878c2.842,0,5.137,2.088,5.137,4.967c0,2.896-2.295,5.004-5.117,5.004
			c-2.841,0-5.135-2.107-5.135-5.004C139.43,112.966,141.724,110.878,144.545,110.878z M144.564,119.269
			c1.787,0,3.273-1.43,3.273-3.424c0-1.975-1.486-3.387-3.273-3.387c-1.806,0-3.273,1.412-3.273,3.387
			C141.291,117.839,142.759,119.269,144.564,119.269z"/>
		<path fill="#8895A5" d="M151.897,111.105h1.693v0.846c0,0.396-0.056,0.715-0.056,0.715h0.037c0.602-1.147,1.807-1.787,3.198-1.787
			c2.577,0,4.177,2.031,4.177,4.984c0,3.03-1.807,4.986-4.309,4.986c-1.204,0-2.295-0.602-2.953-1.617h-0.037
			c0,0,0.074,0.338,0.074,0.827v4.327h-1.825V111.105z M156.355,119.269c1.507,0,2.748-1.223,2.748-3.387
			c0-2.069-1.11-3.404-2.69-3.404c-1.431,0-2.747,1.016-2.747,3.424C153.666,117.595,154.607,119.269,156.355,119.269z"/>
		<path fill="#8895A5" d="M167.741,110.878c2.841,0,5.136,2.088,5.136,4.967c0,2.896-2.295,5.004-5.116,5.004
			c-2.841,0-5.136-2.107-5.136-5.004C162.625,112.966,164.92,110.878,167.741,110.878z M167.761,119.269
			c1.786,0,3.272-1.43,3.272-3.424c0-1.975-1.486-3.387-3.272-3.387c-1.807,0-3.274,1.412-3.274,3.387
			C164.486,117.839,165.954,119.269,167.761,119.269z"/>
		<path fill="#8895A5" d="M174.956,119.119c1.336-1.824,1.486-4.797,1.486-6.266v-1.748h6.434v8.014h1.354v3.763h-1.675v-2.258
			h-7.055v2.258h-1.711v-3.763H174.956z M181.052,119.119v-6.527h-2.86v0.507c0,1.431-0.15,4.14-1.354,6.021H181.052z"/>
		<path fill="#8895A5" d="M186.271,111.105h1.825v3.875h4.815v-3.875h1.824v9.519h-1.824v-4.083h-4.815v4.083h-1.825V111.105z"/>
		<path fill="#8895A5" d="M197.592,111.105h1.825v3.442h1.863c1.975,0,3.461,0.902,3.461,3.065c0,1.789-1.091,3.011-3.479,3.011
			h-3.67V111.105z M201.016,119.306c1.317,0,1.882-0.715,1.882-1.711c0-1.017-0.583-1.732-1.9-1.732h-1.58v3.443H201.016z
			 M206.209,111.105h1.824v9.519h-1.824V111.105z"/>
		<path fill="#8895A5" d="M213.02,115.732l-3.066-4.627h2.088l1.769,2.896c0.131,0.244,0.301,0.564,0.301,0.564h0.037
			c0,0,0.189-0.32,0.32-0.564l1.768-2.896h2.089l-3.066,4.627l3.254,4.892h-2.069l-1.993-3.179
			c-0.151-0.227-0.302-0.509-0.302-0.509h-0.037c0,0-0.132,0.282-0.282,0.509l-1.993,3.179h-2.07L213.02,115.732z"/>
		<path fill="#8895A5" d="M224.344,114.208v-3.104h1.786v2.841c0,0.94,0.339,1.786,1.9,1.786c0.939,0,1.712-0.395,2.107-0.678
			v-3.949h1.824v9.519h-1.824v-3.442c0-0.264,0.019-0.564,0.019-0.564h-0.037c-0.603,0.377-1.638,0.696-2.577,0.696
			C225.51,117.313,224.344,116.24,224.344,114.208z"/>
		<path fill="#8895A5" d="M239.766,114.697h0.489v-0.187c0-1.562-0.902-2.089-2.089-2.089c-0.939,0-1.898,0.376-2.67,0.922
			l-0.735-1.336c0.772-0.641,2.222-1.129,3.557-1.129c2.389,0,3.763,1.317,3.763,3.725v6.021h-1.712v-0.96
			c0-0.432,0.056-0.752,0.056-0.752h-0.036c-0.547,1.092-1.713,1.938-3.124,1.938c-1.655,0-3.18-1.034-3.18-2.822
			C234.084,115.037,237.791,114.697,239.766,114.697z M237.696,119.402c1.599,0,2.559-1.619,2.559-3.03v-0.357h-0.47
			c-1.354,0-3.876,0.113-3.876,1.863C235.909,118.628,236.512,119.402,237.696,119.402z"/>
		<path fill="#8895A5" d="M249.282,110.878c1.26,0,2.671,0.433,3.573,1.393l-0.865,1.279c-0.64-0.641-1.637-1.092-2.633-1.092
			c-1.919,0-3.312,1.449-3.312,3.387s1.393,3.424,3.367,3.424c1.054,0,2.202-0.508,2.935-1.279l0.734,1.336
			c-0.865,0.922-2.314,1.523-3.8,1.523c-3.01,0-5.099-2.125-5.099-4.986C244.184,113.042,246.29,110.878,249.282,110.878z"/>
		<path fill="#8895A5" d="M257.619,112.666h-3.31v-1.561h8.446v1.561h-3.33v7.958h-1.807V112.666z"/>
		<path fill="#8895A5" d="M264.507,111.105h1.825v3.875h4.815v-3.875h1.825v9.519h-1.825v-4.083h-4.815v4.083h-1.825V111.105z"/>
		<path fill="#8895A5" d="M275.829,111.105h1.825v3.442h1.861c1.975,0,3.461,0.902,3.461,3.065c0,1.789-1.09,3.011-3.479,3.011
			h-3.668V111.105z M279.252,119.306c1.316,0,1.881-0.715,1.881-1.711c0-1.017-0.582-1.732-1.898-1.732h-1.58v3.443H279.252z
			 M284.445,111.105h1.824v9.519h-1.824V111.105z"/>
		<path fill="#8895A5" d="M291.256,115.732l-3.066-4.627h2.088l1.77,2.896c0.131,0.244,0.299,0.564,0.299,0.564h0.039
			c0,0,0.188-0.32,0.319-0.564l1.767-2.896h2.089l-3.065,4.627l3.254,4.892h-2.07l-1.992-3.179c-0.15-0.227-0.301-0.509-0.301-0.509
			h-0.039c0,0-0.131,0.282-0.281,0.509l-1.994,3.179H288L291.256,115.732z"/>
		<path fill="#8895A5" d="M303.161,119.119c1.336-1.824,1.486-4.797,1.486-6.266v-1.748h6.434v8.014h1.354v3.763h-1.674v-2.258
			h-7.055v2.258h-1.712v-3.763H303.161z M309.256,119.119v-6.527h-2.859v0.507c0,1.431-0.148,4.14-1.354,6.021H309.256z"/>
		<path fill="#8895A5" d="M318.752,110.878c2.842,0,5.137,2.088,5.137,4.967c0,2.896-2.295,5.004-5.117,5.004
			c-2.842,0-5.137-2.107-5.137-5.004C313.635,112.966,315.93,110.878,318.752,110.878z M318.771,119.269
			c1.786,0,3.273-1.43,3.273-3.424c0-1.975-1.487-3.387-3.273-3.387c-1.807,0-3.273,1.412-3.273,3.387
			C315.498,117.839,316.965,119.269,318.771,119.269z"/>
		<path fill="#8895A5" d="M326.531,111.105h2.033l2.426,5.38c0.264,0.564,0.527,1.279,0.527,1.279h0.038
			c0,0,0.282-0.696,0.526-1.279l2.482-5.38h1.995l0.827,9.519h-1.77l-0.413-5.663c-0.018-0.563,0.02-1.637,0.02-1.637h-0.037
			c0,0-0.245,0.659-0.603,1.393l-2.258,4.76h-1.562l-2.257-4.74c-0.301-0.697-0.603-1.412-0.603-1.412h-0.038
			c0,0,0.058,1.073,0.02,1.637l-0.414,5.663h-1.768L326.531,111.105z"/>
		<path fill="#8895A5" d="M344.328,110.878c2.842,0,5.137,2.088,5.137,4.967c0,2.896-2.295,5.004-5.117,5.004
			c-2.842,0-5.137-2.107-5.137-5.004C339.211,112.966,341.506,110.878,344.328,110.878z M344.348,119.269
			c1.786,0,3.273-1.43,3.273-3.424c0-1.975-1.487-3.387-3.273-3.387c-1.807,0-3.273,1.412-3.273,3.387
			C341.074,117.839,342.541,119.269,344.348,119.269z"/>
		<path fill="#8895A5" d="M351.715,111.105h3.932c1.919,0,3.179,0.846,3.179,2.445c0,0.922-0.489,1.711-1.354,2.088v0.019
			c1.185,0.282,1.807,1.204,1.807,2.257c0,1.77-1.431,2.71-3.501,2.71h-4.062V111.105z M355.326,115.13
			c1.092,0,1.637-0.564,1.637-1.449c0-0.865-0.545-1.316-1.691-1.316h-1.732v2.766H355.326z M355.496,119.344
			c1.316,0,1.938-0.603,1.938-1.486c0-0.94-0.697-1.505-1.957-1.505h-1.938v2.991H355.496z"/>
	</g>
	<path fill="#2C3E50" d="M137.119,16.12c5.158-0.829,11.883-1.29,18.977-1.29c11.791,0,19.436,2.119,25.424,6.633
		c6.448,4.79,10.501,12.436,10.501,23.397c0,11.883-4.329,20.082-10.317,25.149c-6.54,5.434-16.488,8.014-28.648,8.014
		c-7.277,0-12.436-0.461-15.936-0.922V16.12z M151.213,66.785c1.197,0.275,3.132,0.275,4.883,0.275
		c12.711,0.093,21.002-6.908,21.002-21.739c0.092-12.896-7.461-19.713-19.529-19.713c-3.131,0-5.158,0.276-6.355,0.553V66.785z"/>
	<path fill="#2C3E50" d="M243.656,54.809c0,16.857-12.896,23.582-24.135,23.582c-12.805,0-22.938-8.751-22.938-23.49
		c0-15.199,10.777-23.582,24.043-23.582C234.168,31.319,243.656,40.255,243.656,54.809z M211.047,54.994
		c0,7.185,2.855,13.357,9.119,13.357c6.172,0,9.027-6.081,9.027-13.357c0-6.448-2.118-13.726-9.027-13.726
		C213.258,41.268,211.047,48.637,211.047,54.994z"/>
	<path fill="#2C3E50" d="M250.467,46.703c0-5.619-0.185-10.409-0.369-14.37h11.791l0.645,6.08h0.277
		c1.934-2.855,5.895-7.093,13.633-7.093c5.803,0,10.409,2.948,12.344,7.646h0.184c1.658-2.395,3.686-4.145,5.805-5.435
		c2.486-1.474,5.25-2.211,8.566-2.211c8.658,0,15.199,6.08,15.199,19.529v26.53h-13.633V52.875c0-6.54-2.119-10.317-6.633-10.317
		c-3.225,0-5.527,2.211-6.448,4.882c-0.368,1.013-0.553,2.487-0.553,3.592v26.346h-13.634V52.138c0-5.711-2.026-9.58-6.447-9.58
		c-3.594,0-5.712,2.764-6.541,5.066c-0.461,1.105-0.553,2.395-0.553,3.5v26.254h-13.633V46.703z"/>
	<path fill="#2C3E50" d="M329.488,16.028c3.869-0.645,9.119-1.198,15.475-1.198c7.923,0,13.727,1.843,17.41,5.159
		c3.316,2.948,5.436,7.461,5.436,13.081c0,5.711-1.658,10.133-4.789,13.357c-4.238,4.514-11.146,6.816-18.793,6.816
		c-2.579,0-4.975-0.184-6.633-0.46v24.596h-8.105V16.028z M337.594,46.242c1.29,0.369,3.961,0.553,6.633,0.553
		c9.672,0,15.568-4.79,15.568-13.265c0-8.383-5.804-12.344-14.646-12.344c-3.594,0-6.172,0.276-7.555,0.553V46.242z"/>
	<path fill="#2C3E50" d="M374.758,15.291h8.105v29.938h0.275c1.658-2.395,3.316-4.606,4.883-6.632l18.977-23.306h9.857
		l-22.385,26.345l24.227,35.742h-9.488l-20.451-30.491l-5.895,6.816v23.675h-8.105V15.291z"/>
	<path fill="#18A553" d="M113.076,38.768V14.83h14.002c0,0,0,5.267,0,9.844C127.078,34.834,113.076,38.768,113.076,38.768z"/>
	<path fill="#2C3E50" d="M127.078,37.017v40.362h-14.002c0,0,0-21.69,0-26.268C113.076,40.95,127.078,37.017,127.078,37.017z"/>
	<g>
		<path fill="#18A553" d="M92.378,33.449L46.866,0L1.354,33.449c-1.478,1.086-1.796,3.165-0.71,4.643
			c1.086,1.476,3.164,1.795,4.644,0.708l6.821-5.014v43.67h12.729c5.87,0,10.629-4.76,10.629-10.629
			c0-0.047-0.006-0.091-0.007-0.137h0.007V40.097c0-1.471,1.192-2.664,2.664-2.664c1.471,0,2.664,1.193,2.664,2.664v36.295
			c0,0.924,0.749,1.673,1.672,1.673c0.924,0,1.674-0.749,1.674-1.673V40.097c0-1.471,1.192-2.664,2.664-2.664
			c1.471,0,2.664,1.193,2.664,2.664v36.295c0,0.924,0.749,1.673,1.672,1.673c0.924,0,1.673-0.749,1.673-1.673V40.097
			c0-1.471,1.193-2.664,2.664-2.664s2.663,1.193,2.663,2.664v26.594h0.008c-0.001,0.046-0.008,0.09-0.008,0.137
			c0,5.869,4.759,10.629,10.631,10.629h12.852v-43.67l6.821,5.014c0.593,0.436,1.282,0.646,1.964,0.646
			c1.021,0,2.028-0.469,2.679-1.354C94.174,36.613,93.855,34.535,92.378,33.449z"/>
		<path fill="#FFFFFF" d="M46.865,13.752l1.881,3.718c-0.569,0.291-1.201,0.467-1.881,0.467c-0.679,0-1.311-0.176-1.879-0.467
			L46.865,13.752z"/>
		<path fill="#E4E8EB" d="M55.558,34.16c-1.803,0-3.396,0.911-4.347,2.295c-0.951-1.384-2.541-2.295-4.346-2.295
			c-1.804,0-3.393,0.911-4.346,2.295c-0.95-1.384-2.542-2.295-4.346-2.295c-0.632,0-1.229,0.129-1.793,0.334l7.839-15.506
			c0.796,0.404,1.694,0.637,2.646,0.637c0.953,0,1.851-0.232,2.647-0.637l7.837,15.506C56.787,34.289,56.189,34.16,55.558,34.16z"/>
	</g>
</g>
</svg>
