<?xml version="1.0" encoding="utf-8"?>
<!-- Generator: Adobe Illustrator 24.0.1, SVG Export Plug-In . SVG Version: 6.00 Build 0)  -->
<svg version="1.1" id="Layer_1" xmlns="http://www.w3.org/2000/svg" xmlns:xlink="http://www.w3.org/1999/xlink" x="0px" y="0px"
		 viewBox="0 0 220 35.4" style="enable-background:new 0 0 220 35.4;" xml:space="preserve">
<style type="text/css">
	.st0{fill:#ffffff;}
	.st1{fill:none;stroke:#ffffff;stroke-miterlimit:10;}
	.st2{fill:#89C355;}
</style>
	<g>
	<g>
		<g>
			<path class="st0" d="M130,18.2V5.4h11.2v12.8h-2.7V7.8h-5.7v10.4H130z"/>
			<path class="st0" d="M148.5,5.4c3.1,0,5.5,1,5.5,4.3s-2.4,4.3-5.5,4.3h-2.1v4.2h-2.7V5.4H148.5z M148.6,7.8h-2.2v3.8h2.2
				c1.4,0,2.6-0.4,2.6-1.9C151.2,8.2,150,7.8,148.6,7.8z"/>
			<path class="st0" d="M162,5.1c4.5,0,6.8,3.2,6.8,6.7c0,3.5-2.3,6.7-6.8,6.7s-6.8-3.2-6.8-6.7C155.2,8.3,157.5,5.1,162,5.1z
				 M162,7.7c-2.7,0-4,1.9-4,4.1c0,2.3,1.3,4.1,4,4.1c2.7,0,4-1.9,4-4.1C166,9.5,164.7,7.7,162,7.7z"/>
			<path class="st0" d="M179.6,5.4v2.4h-6.3v2.7h5.7v2.4h-5.7v2.9h6.4v2.4h-9.1V5.4H179.6z"/>
			<path class="st0" d="M181.7,18.2V5.4h2.7v5.1h2.1l3.2-5.1h3.1l-4.2,6.2l4.4,6.6h-3l-3.5-5.2h-2.1v5.2H181.7z"/>
			<path class="st0" d="M204.3,5.4v2.5h-3.9v10.4h-2.7V7.8h-3.9V5.4H204.3z"/>
			<path class="st0" d="M205.8,18.2V5.4h2.7v4.2h2.1c3.1,0,5.5,1,5.5,4.3s-2.4,4.3-5.5,4.3H205.8z M208.5,15.8h2.2
				c1.4,0,2.6-0.4,2.6-1.9s-1.2-1.9-2.6-1.9h-2.2V15.8z M217.2,18.2V5.4h2.7v12.8H217.2z"/>
		</g>
		<g>
			<path class="st0" d="M130,33.1V23h1.6v4.2h2l2.8-4.2h1.9l-3.3,4.9l3.6,5.2h-1.9l-3-4.4h-2v4.4H130z"/>
			<path class="st0" d="M143.9,22.9c3.5,0,5.3,2.6,5.3,5.2s-1.8,5.2-5.3,5.2c-3.6,0-5.3-2.6-5.3-5.2S140.3,22.9,143.9,22.9z
				 M143.9,24.4c-2.4,0-3.6,1.8-3.6,3.7c0,1.9,1.2,3.7,3.6,3.7c2.4,0,3.6-1.8,3.6-3.7C147.5,26.1,146.3,24.4,143.9,24.4z"/>
			<path class="st0" d="M157.9,23v1.5h-3.3v8.6h-1.6v-8.6h-3.3V23H157.9z"/>
			<path class="st0" d="M167,23v1.5h-3.3v8.6H162v-8.6h-3.3V23H167z"/>
			<path class="st0" d="M175.2,23v1.5h-5.3v2.8h4.9v1.5h-4.9v2.8h5.4v1.5h-7V23H175.2z"/>
			<path class="st0" d="M176.4,35.4v-3.8h1.2c1.3-2.3,1.6-5.6,1.6-8.6h6.5v8.6h1.3v3.8h-1.5v-2.3h-7.6v2.3H176.4z M179.4,31.6h4.7
				v-7.1h-3.2C180.6,27.1,180.3,29.8,179.4,31.6z"/>
			<path class="st0" d="M187.8,33.1l3.2-5.2l-2.9-4.9h1.8l2.4,4.2h1.5V23h1.6v4.2h1.5l2.4-4.2h1.9l-2.9,4.9l3.2,5.2h-1.8l-2.6-4.4
				h-1.5v4.4h-1.6v-4.4h-1.5l-2.6,4.4H187.8z"/>
			<path class="st0" d="M209.7,23v1.5h-5.3v2.8h4.9v1.5h-4.9v2.8h5.4v1.5h-7V23H209.7z"/>
			<path class="st0" d="M218.3,33.1v-6.3c0-0.4,0-0.7,0-1.1l-5.4,7.4h-1.5V23h1.6v6.3c0,0.4,0,0.8,0,1.1l5.4-7.4h1.5v10.1H218.3z
				 M217.8,21.6v-1.3c-0.7,0.5-1.4,0.6-2.1,0.6c-0.7,0-1.4-0.1-2.1-0.6v1.3c0.6,0.4,1.3,0.6,2.1,0.6C216.4,22.2,217.1,22,217.8,21.6
				z"/>
		</g>
	</g>
		<line class="st1" x1="118.8" y1="5.1" x2="118.8" y2="33.1"/>
		<g>
		<polygon class="st0" points="1.6,33.1 1.6,17.2 10.1,10.7 10.1,33.1 		"/>
			<polygon class="st2" points="1.6,14.5 1.6,2.3 10.1,2.3 10.1,8 		"/>
			<path class="st0" d="M25.9,5.1c10,0,14.5,5.8,14.5,14c0,8.2-4.5,14-14.5,14H13.8v-28H25.9z M25.7,12.9h-2.6v12.5h2.6
			c3.3,0,5.3-1.7,5.3-6.2C30.9,14.5,28.9,12.9,25.7,12.9z"/>
			<path class="st0" d="M57.3,4.5c10.1,0,15.2,6.6,15.2,14.6c0,8-5.1,14.6-15.2,14.6c-10.1,0-15.2-6.6-15.2-14.6
			C42.1,11.1,47.2,4.5,57.3,4.5z M57.3,14c-2.9,0-4.6,2-4.6,5.1c0,3.1,1.7,5.1,4.6,5.1c2.9,0,4.6-2,4.6-5.1C61.9,16,60.2,14,57.3,14
			z"/>
			<path class="st0" d="M107.5,5.1v28h-9V20.3l-4.6,7.1h-4.8l-4.6-7.2v12.8h-9v-28h8.2l7.8,12.2l7.8-12.2H107.5z"/>
			<path class="st2" d="M0.6,0h10.5c0.3,0,0.6,0.3,0.6,0.7v1c0,0.4-0.3,0.7-0.6,0.7H0.6C0.3,2.3,0,2,0,1.6v-1C0,0.3,0.3,0,0.6,0z"/>
	</g>
</g>
</svg>
