<?xml version="1.0" encoding="utf-8"?>
<!-- Generator: Adobe Illustrator 16.0.0, SVG Export Plug-In . SVG Version: 6.00 Build 0)  -->
<!DOCTYPE svg PUBLIC "-//W3C//DTD SVG 1.1//EN" "http://www.w3.org/Graphics/SVG/1.1/DTD/svg11.dtd">
<svg version="1.1" id="Layer_1" xmlns="http://www.w3.org/2000/svg" xmlns:xlink="http://www.w3.org/1999/xlink" x="0px" y="0px"
	 width="18.453px" height="30px" viewBox="30.232 49.148 18.453 30" enable-background="new 30.232 49.148 18.453 30"
	 xml:space="preserve">
<g>
	<path fill="#C90000" d="M43.167,49.924l-0.212,1.262c2.662,1.297,4.497,4.028,4.497,7.189c0,4.092-3.076,7.464-7.042,7.935
		l-2.142,12.729c0.037,0.071,0.056,0.109,0.056,0.109s10.362-13.471,10.362-20.773C48.686,54.599,46.416,51.352,43.167,49.924z"/>
	<path fill="#FF3333" d="M39.459,49.148c-5.096,0-9.227,4.131-9.227,9.227c0,5.096,4.131,9.227,9.227,9.227s9.227-4.13,9.227-9.227
		C48.686,53.28,44.555,49.148,39.459,49.148z M39.459,62.175c-2.098,0-3.799-1.701-3.799-3.8c0-2.098,1.701-3.799,3.799-3.799
		c2.099,0,3.8,1.701,3.8,3.799C43.259,60.474,41.558,62.175,39.459,62.175z"/>
</g>
</svg>
