<?xml version="1.0" encoding="utf-8"?>
<!-- Generator: Adobe Illustrator 22.0.1, SVG Export Plug-In . SVG Version: 6.00 Build 0)  -->
<svg version="1.1" id="Layer_1" xmlns="http://www.w3.org/2000/svg" xmlns:xlink="http://www.w3.org/1999/xlink" x="0px" y="0px"
	 viewBox="0 0 512 358.5" style="enable-background:new 0 0 512 358.5;" xml:space="preserve">
<style type="text/css">
	.st0{fill:#B5BDC7;}
</style>
<path class="st0" d="M501.5,56.1c-5.9-21.9-23.2-39.2-45.1-45.1C416.3,0,256,0,256,0S95.7,0,55.7,10.5C34.2,16.4,16.5,34.1,10.6,56
	C0,96.2,0,179.2,0,179.2s0,83.5,10.5,123.1c5.9,21.9,23.2,39.2,45.1,45.1c40.5,11,200.3,11,200.3,11s160.3,0,200.3-10.5
	c21.9-5.9,39.2-23.2,45.1-45.1C512,262.7,512,179.7,512,179.7S512.4,96.2,501.5,56.1z M205,256V102.5l133.3,76.7L205,256z"/>
</svg>
