<?xml version="1.0" encoding="utf-8"?>
<!-- Generator: Adobe Illustrator 22.0.1, SVG Export Plug-In . SVG Version: 6.00 Build 0)  -->
<svg version="1.1" id="Layer_1" xmlns="http://www.w3.org/2000/svg" xmlns:xlink="http://www.w3.org/1999/xlink" x="0px" y="0px"
	 viewBox="0 0 80 80" enable-background="new 0 0 80 80" xml:space="preserve">
<g>
	<path fill="#EEF3F7" d="M80,54c0,0-5.769-4.027-12.659-2.622c-6.89,1.405-20.334,6.221-29.365,6.154s-25.151-6.02-30.167-4.08
		C2.793,55.391,0,57,0,57V21c0,0,9.749-0.659,15.635,2.284s16.99,5.485,22.341,5.552c5.351,0.067,10.836-3.478,20.468-5.753
		S80,28.903,80,28.903V54z"/>
	<g>
		<path fill="#353A3E" d="M62.63,77.357H38.266c-0.655,0-1.186,0.531-1.186,1.186c0,0.655,0.531,1.186,1.186,1.186H62.63
			c0.655,0,1.186-0.531,1.186-1.186C63.816,77.888,63.285,77.357,62.63,77.357z"/>
		<path fill="#353A3E" d="M32.221,77.357H2.135c-0.655,0-1.186,0.531-1.186,1.186c0,0.655,0.531,1.186,1.186,1.186h30.087
			c0.655,0,1.186-0.531,1.186-1.186C33.408,77.888,32.877,77.357,32.221,77.357z"/>
		<path fill="#353A3E" d="M77.985,77.357h-9.263c-0.655,0-1.186,0.531-1.186,1.186c0,0.655,0.531,1.186,1.186,1.186h9.263
			c0.655,0,1.186-0.531,1.186-1.186C79.171,77.888,78.64,77.357,77.985,77.357z"/>
		<path fill="#353A3E" d="M62.913,69.744H46.798c-0.655,0-1.186,0.531-1.186,1.186c0,0.655,0.531,1.186,1.186,1.186h16.115
			c0.655,0,1.186-0.531,1.186-1.186C64.099,70.275,63.568,69.744,62.913,69.744z"/>
		<path fill="#353A3E" d="M31.739,70.93c0,0.655,0.531,1.186,1.186,1.186h7.232c0.655,0,1.186-0.531,1.186-1.186
			c0-0.655-0.531-1.186-1.186-1.186h-7.232C32.27,69.744,31.739,70.275,31.739,70.93z"/>
		<path fill="#353A3E" d="M74.574,72.116c0.655,0,1.186-0.531,1.186-1.186c0-0.655-0.531-1.186-1.186-1.186h-4.159
			c-0.655,0-1.186,0.531-1.186,1.186c0,0.655,0.531,1.186,1.186,1.186H74.574z"/>
		<path fill="#353A3E" d="M1.947,72.116h25.026c0.655,0,1.186-0.531,1.186-1.186c0-0.655-0.531-1.186-1.186-1.186H1.947
			c-0.655,0-1.186,0.531-1.186,1.186C0.761,71.585,1.292,72.116,1.947,72.116z"/>
		<path fill="#353A3E" d="M2.226,64.535h16.115c0.655,0,1.186-0.531,1.186-1.186c0-0.655-0.531-1.186-1.186-1.186H2.226
			c-0.655,0-1.186,0.531-1.186,1.186C1.04,64.004,1.571,64.535,2.226,64.535z"/>
		<path fill="#353A3E" d="M46.49,64.535c0.655,0,1.186-0.531,1.186-1.186c0-0.655-0.531-1.186-1.186-1.186h-7.232
			c-0.655,0-1.186,0.531-1.186,1.186c0,0.655,0.531,1.186,1.186,1.186H46.49z"/>
		<path fill="#353A3E" d="M31.743,62.163h-7.232c-0.655,0-1.186,0.531-1.186,1.186c0,0.655,0.531,1.186,1.186,1.186h7.232
			c0.655,0,1.186-0.531,1.186-1.186C32.93,62.694,32.398,62.163,31.743,62.163z"/>
		<path fill="#353A3E" d="M78.127,62.163H53.101c-0.655,0-1.186,0.531-1.186,1.186c0,0.655,0.531,1.186,1.186,1.186h25.026
			c0.655,0,1.186-0.531,1.186-1.186C79.313,62.694,78.782,62.163,78.127,62.163z"/>
		<path fill="#353A3E" d="M1.195,2.64h77.566c0.654,0,1.184-0.531,1.184-1.185s-0.53-1.185-1.184-1.185H1.195
			c-0.654,0-1.185,0.531-1.185,1.185S0.541,2.64,1.195,2.64z"/>
		<path fill="#353A3E" d="M79.553,48.917c-0.394-0.385-1.027-0.378-1.414,0.018l-2.193,2.248c-3.762-1.027-7.343-1.036-10.809-0.533
			l14.277-14.221c0.391-0.39,0.392-1.023,0.002-1.414c-0.39-0.391-1.022-0.394-1.414-0.003L62.049,50.904
			c-0.108,0.107-0.179,0.235-0.228,0.369c-2.487,0.572-4.923,1.332-7.333,2.085c-2.775,0.867-5.606,1.741-8.508,2.336l28.688-28.805
			c1.214,0.712,2.442,1.534,3.765,2.447c0.451,0.313,1.077,0.201,1.39-0.254c0.314-0.454,0.2-1.077-0.254-1.391
			c-5.63-3.891-9.945-6.384-18.325-5.588c-5.968,0.565-9.914,2.054-13.397,3.368c-2.898,1.092-5.4,2.037-8.476,2.211
			c-7.285,0.419-13.604-1.883-19.714-4.106c-5.885-2.141-11.969-4.354-18.657-3.933c-0.551,0.035-0.969,0.51-0.935,1.061
			c0.035,0.551,0.504,0.979,1.061,0.935c1.543-0.097,3.047-0.045,4.527,0.119l-5.353,5.262c-0.393,0.387-0.399,1.02-0.012,1.414
			C0.482,28.632,0.741,28.732,1,28.732c0.253,0,0.506-0.096,0.701-0.287l6.419-6.31c3.014,0.579,5.958,1.559,8.96,2.635
			L0.354,41.553c-0.39,0.392-0.389,1.024,0.002,1.414c0.195,0.194,0.451,0.292,0.706,0.292c0.256,0,0.513-0.098,0.708-0.294
			L19.155,25.52c2.74,0.996,5.524,1.997,8.428,2.776L0.349,55.972c-0.134,0.136-0.203,0.303-0.244,0.477
			c-0.109,0.334-0.052,0.712,0.203,0.988c0.377,0.404,1.008,0.427,1.413,0.052c5.633-5.23,13.393-3.452,22.379-1.393
			c4.995,1.144,10.159,2.328,15.326,2.328c5.554,0,10.69-1.604,15.658-3.156c7.69-2.401,14.954-4.672,23.317-1.12
			c0.505,0.213,1.094-0.021,1.311-0.53c0.216-0.508-0.021-1.095-0.53-1.311c-0.376-0.159-0.747-0.292-1.119-0.43l1.506-1.544
			C79.956,49.935,79.948,49.302,79.553,48.917z M6.38,52.693l23.468-23.849c2.481,0.539,5.056,0.886,7.781,0.885
			c0.611,0,1.229-0.017,1.854-0.052c0.382-0.022,0.754-0.057,1.121-0.1L17.432,52.656C13.502,51.989,9.767,51.773,6.38,52.693z
			 M24.548,54.145c-1.596-0.366-3.174-0.725-4.73-1.042l24.344-24.245c1.488-0.423,2.919-0.962,4.389-1.517
			c3.105-1.171,6.611-2.477,11.61-3.098L29.324,55.197C27.721,54.868,26.125,54.506,24.548,54.145z M42.689,56.22
			c-1.077,0.122-2.162,0.203-3.261,0.203c-2.561,0-5.152-0.314-7.734-0.77l31.554-31.674c3.931-0.143,6.826,0.575,9.584,1.92
			L42.801,56.05C42.751,56.1,42.726,56.163,42.689,56.22z"/>
		<circle fill="#353A3E" cx="7.004" cy="5.605" r="1.183"/>
		<circle fill="#353A3E" cx="16.209" cy="5.605" r="1.348"/>
		<path fill="#353A3E" d="M27.484,6.688c0-0.498-0.404-0.902-0.902-0.902s-0.902,0.404-0.902,0.902c0,0.498,0.404,0.902,0.902,0.902
			S27.484,7.186,27.484,6.688z"/>
		<path fill="#353A3E" d="M34.62,9.353c0.874,0,1.583-0.708,1.583-1.583s-0.709-1.583-1.583-1.583c-0.874,0-1.583,0.709-1.583,1.583
			S33.746,9.353,34.62,9.353z"/>
		<path fill="#353A3E" d="M43.826,4.65c-0.849,0-1.538,0.688-1.538,1.538c0,0.849,0.688,1.538,1.538,1.538
			c0.849,0,1.538-0.688,1.538-1.538C45.363,5.339,44.675,4.65,43.826,4.65z"/>
		<circle fill="#353A3E" cx="53.031" cy="5.605" r="1.153"/>
		<circle fill="#353A3E" cx="62.237" cy="5.605" r="1.421"/>
		<circle fill="#353A3E" cx="71.442" cy="5.605" r="1.027"/>
		<circle fill="#353A3E" cx="2.56" cy="12.271" r="1.883"/>
		<path fill="#353A3E" d="M11.035,11.604c0,0.864,0.7,1.564,1.564,1.564c0.864,0,1.564-0.7,1.564-1.564
			c0-0.864-0.7-1.564-1.564-1.564C11.735,10.04,11.035,10.741,11.035,11.604z"/>
		<circle fill="#353A3E" cx="20.971" cy="12.271" r="1.883"/>
		<circle fill="#353A3E" cx="30.176" cy="14.27" r="1.559"/>
		<circle fill="#353A3E" cx="39.382" cy="14.437" r="1.65"/>
		<circle fill="#353A3E" cx="48.587" cy="12.271" r="1.688"/>
		<circle fill="#353A3E" cx="57.793" cy="12.271" r="1.883"/>
		<path fill="#353A3E" d="M65.346,11.771c0,0.912,0.74,1.652,1.652,1.652c0.912,0,1.652-0.74,1.652-1.652s-0.74-1.652-1.652-1.652
			C66.086,10.119,65.346,10.858,65.346,11.771z"/>
		<circle fill="#353A3E" cx="76.203" cy="12.271" r="1.883"/>
		<path fill="#353A3E" d="M7.004,18.467c0.912,0,1.652-0.739,1.652-1.651c0-0.912-0.739-1.652-1.652-1.652s-1.652,0.739-1.652,1.652
			C5.352,17.727,6.092,18.467,7.004,18.467z"/>
		<path fill="#353A3E" d="M16.209,20.372c0.924,0,1.674-0.749,1.674-1.674c0-0.924-0.749-1.674-1.674-1.674
			c-0.924,0-1.674,0.749-1.674,1.674C14.536,19.623,15.285,20.372,16.209,20.372z"/>
		<path fill="#353A3E" d="M25.415,19.802c-0.771,0-1.396,0.625-1.396,1.396c0,0.771,0.625,1.396,1.396,1.396
			c0.771,0,1.396-0.625,1.396-1.396C26.811,20.427,26.186,19.802,25.415,19.802z"/>
		<path fill="#353A3E" d="M34.62,24.497c1.04,0,1.883-0.843,1.883-1.883c0-1.04-0.843-1.883-1.883-1.883
			c-1.04,0-1.883,0.843-1.883,1.883C32.737,23.654,33.58,24.497,34.62,24.497z"/>
		<path fill="#353A3E" d="M43.826,19.492c-0.804,0-1.456,0.652-1.456,1.456c0,0.804,0.652,1.456,1.456,1.456
			s1.456-0.652,1.456-1.456C45.282,20.144,44.63,19.492,43.826,19.492z"/>
		<path fill="#353A3E" d="M53.031,20.601c0.775,0,1.403-0.628,1.403-1.403c0-0.775-0.628-1.403-1.403-1.403
			s-1.403,0.628-1.403,1.403C51.629,19.973,52.257,20.601,53.031,20.601z"/>
		<circle fill="#353A3E" cx="62.237" cy="18.699" r="1.883"/>
		<circle fill="#353A3E" cx="71.442" cy="19.115" r="1.501"/>
	</g>
</g>
</svg>
