<?xml version="1.0" encoding="utf-8"?>
<!-- Generator: Adobe Illustrator 22.0.1, SVG Export Plug-In . SVG Version: 6.00 Build 0)  -->
<svg version="1.1" id="Layer_1" xmlns="http://www.w3.org/2000/svg" xmlns:xlink="http://www.w3.org/1999/xlink" x="0px" y="0px"
	 viewBox="0 0 80 80" enable-background="new 0 0 80 80" xml:space="preserve">
<rect x="1" y="1" fill="#EEF3F7" width="55" height="51.427"/>
<g>
	<path fill="#353A3E" d="M78.8,22.686c-0.663,0-1.2,0.537-1.2,1.2v53.715H56.662V64.053c0-0.663-0.537-1.2-1.2-1.2
		c-0.663,0-1.2,0.537-1.2,1.2v13.547H25.417V64.053c0-0.663-0.537-1.2-1.2-1.2s-1.2,0.537-1.2,1.2v13.547H2.399v-23.98h24.169
		c0.663,0,1.2-0.537,1.2-1.2s-0.537-1.2-1.2-1.2H2.399V2.4h28.12v21.475c0,0.328,0.134,0.643,0.372,0.869
		c0.223,0.213,0.52,0.331,0.827,0.331c0.02,0,0.039,0,0.058-0.001l12.129-0.008c0.663,0,1.2-0.537,1.2-1.2s-0.537-1.2-1.2-1.2
		l-10.987,0.001V2.4h21.376v48.821h-18.52c-0.663,0-1.2,0.537-1.2,1.2s0.537,1.2,1.2,1.2h31.693c0.663,0,1.2-0.537,1.2-1.2
		s-0.537-1.2-1.2-1.2H56.694V25.066h10.774c0.663,0,1.2-0.537,1.2-1.2s-0.537-1.2-1.2-1.2H56.694V1.2c0-0.663-0.537-1.2-1.2-1.2H1.2
		C0.537,0,0,0.537,0,1.2v77.6C0,79.463,0.537,80,1.2,80H78.8c0.663,0,1.2-0.537,1.2-1.2V23.886C80,23.223,79.463,22.686,78.8,22.686
		z"/>
</g>
</svg>
