<?xml version="1.0" encoding="utf-8"?>
<!-- Generator: Adobe Illustrator 22.0.1, SVG Export Plug-In . SVG Version: 6.00 Build 0)  -->
<svg version="1.1" id="Layer_1" xmlns="http://www.w3.org/2000/svg" xmlns:xlink="http://www.w3.org/1999/xlink" x="0px" y="0px"
	 viewBox="0 0 80 80" enable-background="new 0 0 80 80" xml:space="preserve">
<path fill="#EEF3F7" d="M70.5,62.375l-1.062-7.25l-3-4.125l-4.062-1l-5.312,0.375l-2.5-1.812l-3.25-4.5l-0.915,0.003
	c-2.57,2.465-6.312,4.028-10.491,4.028c-4.146,0-7.861-1.538-10.43-3.97l-0.852,0.002l-3.5,4.688l-2.875,1.625l-5.188,0.125
	l-3.5,0.75L11,54.125l-1.375,2.938l-0.562,7.062l0.25,14.438l12.062,0.375l0.438-16.188l2.812,2.875l5.5,1.438l8.25,1.562
	l7.562-0.375l5.5-1.688l6.5-2.062L58,78.812l12.75-0.062L70.5,62.375z"/>
<polygon fill="#EEF3F7" points="24,22 25,14 28,7 33,5 40,4 47,5 51,7 54,11 55,15 56,19 56,22 24,22 "/>
<g>
	<path fill="#353A3E" d="M20.944,23.447h3.503h1.269c-0.002,0.109-0.011,0.214-0.011,0.324c0,11.483,6.426,20.825,14.324,20.825
		s14.324-9.342,14.324-20.825c0-0.109-0.009-0.215-0.011-0.324h1.509h3.263c0.673,0,1.218-0.545,1.218-1.218
		s-0.545-1.218-1.218-1.218H57.11c0.002-0.109,0.011-0.215,0.011-0.325c0-10.501-2.728-17.604-15.797-18.038V1.218
		C41.324,0.545,40.779,0,40.106,0c-0.673,0-1.218,0.545-1.218,1.218v1.425C29.412,2.881,23.177,6.27,23.177,20.686
		c0,0.11,0.009,0.216,0.011,0.325h-2.244c-0.673,0-1.218,0.545-1.218,1.218S20.271,23.447,20.944,23.447z M51.916,23.771
		c0,10.14-5.333,18.389-11.888,18.389S28.14,33.911,28.14,23.771c0-0.109,0.001-0.216,0.003-0.324h23.77
		C51.915,23.555,51.916,23.662,51.916,23.771z M25.613,20.686c0-9.806,2.152-15.263,13.275-15.605v7.828
		c0,0.673,0.545,1.218,1.218,1.218c0.673,0,1.218-0.545,1.218-1.218V5.088c11.187,0.382,13.36,5.833,13.36,15.599
		c0,0.109-0.001,0.217-0.003,0.325h-1.599H26.974h-1.358C25.614,20.903,25.613,20.795,25.613,20.686z"/>
	<path fill="#353A3E" d="M71.963,78.462V62.1c0-8.411-4.003-11.386-5.724-12.274c-1.832-0.945-3.581-0.789-5.277-0.641
		c-1.139,0.102-2.215,0.194-3.347-0.024c-1.806-0.351-3.99-3.351-4.942-5.159c-0.314-0.597-1.05-0.824-1.644-0.512
		c-0.596,0.313-0.825,1.049-0.513,1.644c0.307,0.584,3.097,5.73,6.633,6.417c1.47,0.286,2.827,0.166,4.027,0.06
		c1.47-0.13,2.74-0.242,3.945,0.379c1.325,0.685,4.405,3.038,4.405,10.109v15.463h-9.99V57.08c0-0.673-0.545-1.218-1.218-1.218
		c-0.673,0-1.218,0.545-1.218,1.218v6.308c-2.215,0.924-10.014,3.963-16.824,3.963c-7.09,0-15.348-3.306-17.165-4.071v-6.2
		c0-0.673-0.545-1.218-1.218-1.218s-1.218,0.545-1.218,1.218v20.484H10.431V62.1c0-7.071,3.08-9.425,4.404-10.109
		c1.205-0.619,2.476-0.509,3.946-0.379c1.201,0.106,2.558,0.226,4.026-0.06c3.536-0.688,6.327-5.833,6.633-6.417
		c0.312-0.596,0.083-1.332-0.513-1.644c-0.594-0.312-1.331-0.085-1.644,0.512c-0.952,1.808-3.136,4.808-4.942,5.159
		c-1.13,0.22-2.207,0.125-3.347,0.024c-1.693-0.148-3.444-0.304-5.277,0.642c-1.72,0.888-5.723,3.863-5.723,12.273v16.682
		C7.995,79.455,8.54,80,9.213,80h61.575c0.673,0,1.218-0.545,1.218-1.218C72.005,78.671,71.991,78.564,71.963,78.462z
		 M23.112,65.914c3.006,1.203,10.43,3.873,17.165,3.873c6.54,0,13.682-2.517,16.824-3.765v11.542H23.112V65.914z"/>
</g>
</svg>
