<?xml version="1.0" encoding="utf-8"?>
<!-- Generator: Adobe Illustrator 22.0.1, SVG Export Plug-In . SVG Version: 6.00 Build 0)  -->
<svg version="1.1" id="Layer_1" xmlns="http://www.w3.org/2000/svg" xmlns:xlink="http://www.w3.org/1999/xlink" x="0px" y="0px"
	 viewBox="0 0 80 80" enable-background="new 0 0 80 80" xml:space="preserve">
<g>
	<path fill="#EEF3F7" d="M35.661,59.873H12.249V37.331h14.722c1.054,0,1.909-0.855,1.909-1.909v-6.416
		c0-1.054-0.855-1.909-1.909-1.909H6.976c-2.434,0-5.178,2.703-5.178,3.95v35.582c0,1.246,2.577,3.479,5.511,3.479h22.525
		l-0.042,9.9h9.389V62.482C39.181,62.482,36.899,59.873,35.661,59.873z"/>
	<path fill="#EEF3F7" d="M35.661,59.873H12.249V37.331h14.722c1.054,0,1.909-0.855,1.909-1.909v-6.416
		c0-1.054-0.855-1.909-1.909-1.909H6.976c-2.434,0-5.178,2.703-5.178,3.95v35.582c0,1.246,2.577,3.479,5.511,3.479h22.525
		l-0.042,9.9h9.389V62.482C39.181,62.482,36.899,59.873,35.661,59.873z"/>
</g>
<path fill="#EEF3F7" d="M44.799,27.431l22.876-0.201l3.612,1.672l1.271,3.01l0.134,7.358c0,0,0.201,10.435,0,10.435
	s-10.769-0.067-10.769-0.067l0.067-10.97l-2.876-1.405l-14.381,0.067L44.799,27.431z"/>
<circle fill="#EEF3F7" cx="37.14" cy="6.863" r="5.385"/>
<g>
	<path fill="#353A3E" d="M37.089,33.064c1.324,0.102,2.48-0.889,2.581-2.213c0.102-1.324-0.889-2.48-2.213-2.581
		c-1.324-0.102-2.48,0.889-2.581,2.213C34.775,31.806,35.765,32.962,37.089,33.064z"/>
	<path fill="#353A3E" d="M37.089,43.037c1.324,0.102,2.48-0.889,2.581-2.213c0.102-1.324-0.889-2.48-2.213-2.581
		c-1.324-0.102-2.48,0.889-2.581,2.213C34.775,41.779,35.765,42.935,37.089,43.037z"/>
	<path fill="#353A3E" d="M62.313,65.656c-1.053-0.081-1.971,0.707-2.052,1.759s0.707,1.971,1.759,2.052
		c1.053,0.081,1.971-0.707,2.052-1.759S63.366,65.737,62.313,65.656z"/>
	<path fill="#353A3E" d="M72.394,65.656c-1.053-0.081-1.971,0.707-2.052,1.759s0.707,1.971,1.759,2.052
		c1.053,0.081,1.971-0.707,2.052-1.759C74.235,66.656,73.447,65.737,72.394,65.656z"/>
	<path fill="#353A3E" d="M57.459,75.738c-1.053-0.081-1.971,0.707-2.052,1.759s0.707,1.971,1.759,2.052s1.971-0.707,2.052-1.759
		S58.511,75.819,57.459,75.738z"/>
	<path fill="#353A3E" d="M67.54,75.738c-1.053-0.081-1.971,0.707-2.052,1.759s0.707,1.971,1.759,2.052s1.971-0.707,2.052-1.759
		C69.381,76.738,68.593,75.819,67.54,75.738z"/>
	<path fill="#353A3E" d="M77.622,75.738c-1.053-0.081-1.971,0.707-2.052,1.759c-0.081,1.053,0.707,1.971,1.759,2.052
		s1.971-0.707,2.052-1.759S78.674,75.819,77.622,75.738z"/>
	<path fill="#353A3E" d="M60.072,38.416c0.549,0,0.996,0.447,0.996,0.995v9.254h-2.665c-1.231,0-2.231,1-2.231,2.231v5.512
		c0,1.231,1,2.232,2.231,2.232h17.69c1.231,0,2.232-1.001,2.232-2.232v-5.512c0-1.231-1.001-2.231-2.232-2.231H73.51V32.852
		c0-3.629-2.952-6.581-6.581-6.581H45.863v-3.951c0-0.641-0.52-1.161-1.161-1.161h-6.4V13.29c2.685-0.49,4.789-2.646,5.207-5.355
		h9.772v4.801c0,0.641,0.52,1.161,1.161,1.161s1.161-0.52,1.161-1.161V1.161C55.603,0.52,55.083,0,54.442,0s-1.161,0.52-1.161,1.161
		v4.552h-9.81c-0.578-2.968-3.195-5.216-6.33-5.216c-3.118,0-5.725,2.223-6.323,5.167h-9.817V1.161C21.002,0.52,20.483,0,19.841,0
		s-1.161,0.52-1.161,1.161v11.575c0,0.641,0.52,1.161,1.161,1.161s1.161-0.52,1.161-1.161V7.985h9.778
		c0.436,2.686,2.531,4.818,5.2,5.305v7.868h-6.4c-0.641,0-1.161,0.52-1.161,1.161v3.951H7.195c-3.63,0-6.582,2.952-6.582,6.581
		v31.774c0,3.629,2.952,6.581,6.582,6.581h21.335v7.633c0,0.641,0.52,1.161,1.161,1.161c0.641,0,1.161-0.52,1.161-1.161v-8.794
		c0-0.641-0.52-1.161-1.161-1.161H7.195c-2.349,0-4.26-1.911-4.26-4.259V32.852c0-2.348,1.911-4.259,4.26-4.259H28.42v7.503H14.35
		c-1.829,0-3.317,1.488-3.317,3.317v18.43c0,1.829,1.488,3.317,3.317,3.317l19.845,0.001c2.337,0,4.239,1.902,4.239,4.239v13.44
		c0,0.641,0.52,1.161,1.161,1.161c0.641,0,1.161-0.52,1.161-1.161v-13.44c0-3.618-2.943-6.561-6.561-6.561L14.35,58.837
		c-0.548,0-0.995-0.447-0.995-0.995v-18.43c0-0.548,0.447-0.995,0.995-0.995H28.42v3.958c0,0.041,0.002,0.081,0.006,0.121
		c0.091,4.727,3.977,8.554,8.716,8.554c4.739,0,8.625-3.827,8.716-8.553c0.004-0.04,0.006-0.08,0.006-0.122v-3.958H60.072z
		 M33.011,6.948c0-2.278,1.853-4.13,4.13-4.13c2.278,0,4.13,1.853,4.13,4.13c0,2.278-1.853,4.13-4.13,4.13
		C34.864,11.079,33.011,9.226,33.011,6.948z M76.003,56.318h-17.51v-5.331h3.735c0,0,0,0,0,0h10.12c0,0,0,0,0,0h3.654V56.318z
		 M66.929,28.592c2.348,0,4.259,1.911,4.259,4.259v15.814H63.39v-9.254c0-1.829-1.488-3.317-3.318-3.317H45.863v-7.503H66.929z
		 M43.541,42.268c-0.004,0.033-0.005,0.066-0.005,0.099c-0.022,3.507-2.891,6.361-6.395,6.361s-6.373-2.854-6.395-6.361
		c0-0.033-0.001-0.065-0.005-0.098V23.48h12.8V42.268z"/>
</g>
</svg>
