<?xml version="1.0" encoding="utf-8"?>
<!-- Generator: Adobe Illustrator 22.0.1, SVG Export Plug-In . SVG Version: 6.00 Build 0)  -->
<svg version="1.1" id="Layer_1" xmlns="http://www.w3.org/2000/svg" xmlns:xlink="http://www.w3.org/1999/xlink" x="0px" y="0px"
	 viewBox="0 0 80 80" enable-background="new 0 0 80 80" xml:space="preserve">
<rect x="20" y="2" fill="#EEF3F7" width="40" height="27"/>
<g>
	<path fill="#353A3E" d="M78.809,0.212H1.191C0.533,0.212,0,0.746,0,1.404v30.333c0,0.658,0.533,1.191,1.191,1.191
		c0.658,0,1.191-0.533,1.191-1.191V2.595h5.264v23.917c0,0.658,0.533,1.191,1.191,1.191c0.658,0,1.191-0.533,1.191-1.191V2.595
		h8.068l0.001,32.382c0.088,1.96,1.795,5.874,7.618,6.65c5.359,0.714,7.026,2.01,7.542,2.72c0.276,0.378,0.364,0.771,0.278,1.239
		c-0.67,3.686-2.828,21.738-2.652,27.355c0.163,5.184,5.882,6.745,8.923,6.847c0.014,0,0.112,0,0.126,0
		c3.002-0.101,8.721-1.662,8.883-6.847c0.176-5.617-1.983-23.669-2.653-27.356c-0.085-0.467,0.003-0.86,0.278-1.238
		c0.516-0.709,2.183-2.006,7.543-2.72c5.822-0.777,7.529-4.689,7.619-6.704V2.595h7.792v24.108c0,0.658,0.533,1.191,1.191,1.191
		c0.658,0,1.191-0.533,1.191-1.191V2.595h5.838v29.141c0,0.658,0.533,1.191,1.191,1.191c0.658,0,1.191-0.533,1.191-1.191V1.404
		C80,0.746,79.467,0.212,78.809,0.212z M53.67,39.265c-4.826,0.643-7.82,1.847-9.155,3.68c-0.656,0.902-0.897,1.963-0.696,3.067
		c0.641,3.526,2.783,21.494,2.615,26.855c-0.132,4.25-6.32,4.528-6.584,4.538c-0.263-0.01-6.449-0.288-6.583-4.538
		c-0.168-5.361,1.974-23.328,2.615-26.854c0.201-1.105-0.04-2.166-0.696-3.068c-1.335-1.834-4.329-3.037-9.155-3.68
		c-5.244-0.699-5.542-4.257-5.551-4.341v-4.247h38.742l0,4.18C59.213,35.008,58.914,38.565,53.67,39.265z M59.223,28.294H20.481
		V2.595h8.068v13.211c0,0.658,0.533,1.191,1.191,1.191c0.658,0,1.191-0.533,1.191-1.191V2.595h8.067v13.211
		c0,0.658,0.533,1.191,1.191,1.191c0.658,0,1.191-0.533,1.191-1.191V2.595h8.068v13.211c0,0.658,0.533,1.191,1.191,1.191
		c0.658,0,1.191-0.533,1.191-1.191V2.595h7.389L59.223,28.294z"/>
	<path fill="#353A3E" d="M78.809,36.663c-0.658,0-1.191,0.533-1.191,1.191v24.471c0,0.658,0.533,1.191,1.191,1.191
		c0.658,0,1.191-0.533,1.191-1.191V37.854C80,37.196,79.467,36.663,78.809,36.663z"/>
	<path fill="#353A3E" d="M1.191,36.663C0.533,36.663,0,37.196,0,37.854v24.471c0,0.658,0.533,1.191,1.191,1.191
		c0.658,0,1.191-0.533,1.191-1.191V37.854C2.383,37.196,1.849,36.663,1.191,36.663z"/>
	<path fill="#353A3E" d="M78.809,67.252c-0.658,0-1.191,0.533-1.191,1.191v9.304c0,0.658,0.533,1.191,1.191,1.191
		c0.658,0,1.191-0.533,1.191-1.191v-9.304C80,67.785,79.467,67.252,78.809,67.252z"/>
	<path fill="#353A3E" d="M1.191,67.252C0.533,67.252,0,67.785,0,68.443v9.304c0,0.658,0.533,1.191,1.191,1.191
		c0.658,0,1.191-0.533,1.191-1.191v-9.304C2.383,67.785,1.849,67.252,1.191,67.252z"/>
	<path fill="#353A3E" d="M8.838,33.35c-0.658,0-1.191,0.533-1.191,1.191v16.186c0,0.658,0.533,1.191,1.191,1.191
		c0.658,0,1.191-0.533,1.191-1.191V34.541C10.03,33.883,9.496,33.35,8.838,33.35z"/>
	<path fill="#353A3E" d="M8.838,58.075c-0.658,0-1.191,0.533-1.191,1.191v7.264c0,0.658,0.533,1.191,1.191,1.191
		c0.658,0,1.191-0.533,1.191-1.191v-7.264C10.03,58.609,9.496,58.075,8.838,58.075z"/>
	<path fill="#353A3E" d="M70.588,33.541c-0.658,0-1.191,0.533-1.191,1.191v16.186c0,0.658,0.533,1.191,1.191,1.191
		c0.658,0,1.191-0.533,1.191-1.191V34.732C71.78,34.074,71.246,33.541,70.588,33.541z"/>
	<path fill="#353A3E" d="M70.588,58.266c-0.658,0-1.191,0.533-1.191,1.191v7.265c0,0.658,0.533,1.191,1.191,1.191
		c0.658,0,1.191-0.533,1.191-1.191v-7.265C71.78,58.799,71.246,58.266,70.588,58.266z"/>
	
		<ellipse transform="matrix(0.9719 -0.2354 0.2354 0.9719 -14.9959 11.3558)" fill="#353A3E" cx="40.064" cy="68.485" rx="2.124" ry="2.124"/>
</g>
</svg>
