<?xml version="1.0" encoding="utf-8"?>
<!-- Generator: Adobe Illustrator 22.0.1, SVG Export Plug-In . SVG Version: 6.00 Build 0)  -->
<svg version="1.1" id="Layer_1" xmlns="http://www.w3.org/2000/svg" xmlns:xlink="http://www.w3.org/1999/xlink" x="0px" y="0px"
	 viewBox="0 0 80 80" enable-background="new 0 0 80 80" xml:space="preserve">
<polygon fill="#EEF3F7" points="76.562,46.812 65.438,56.562 54.625,47.062 52.875,51.125 52.625,57.688 55.938,63.812 
	59.688,67.188 65.812,68.312 73.312,66.125 76.312,62.562 78.312,55.875 "/>
<path fill="#EEF3F7" d="M2.312,39.438l-0.125,6.5l2,5.5l3.562,5.875l5.188,4.125l5.5,2.125l5.938,0.688L28.312,64L36,61.938
	l7.562-5.688l3.875-9l0.5-7.938c0,0-22.562,21.188-22.75,21.25L2.312,39.438z"/>
<polygon fill="#EEF3F7" points="24.812,44.062 24.906,43.976 25,44.062 24.997,43.891 44.5,25.812 43.75,23.312 41.188,18 
	37,12.812 25.125,24.188 24.688,24.188 12.812,12.812 8.625,18 6.062,23.312 5.312,25.812 24.815,43.891 "/>
<path fill="#353A3E" d="M78.318,77.367H66.786v-8.048c7.69-0.544,12.965-6.309,12.965-14.411c0-9.539-9.159-23.147-14.159-23.147
	c-4.875,0-14.158,13.837-14.158,23.147c0,8.017,5.161,13.754,12.719,14.4v8.059H26.215V65.352
	c11.75-0.452,23.254-8.196,23.254-24.878C49.468,23.095,32.76,0,25.118,0c-7.445,0-24.35,23.52-24.35,40.474
	c0,16.474,11.218,24.227,22.814,24.853v12.04H1.681c-0.727,0-1.316,0.59-1.316,1.317C0.365,79.41,0.954,80,1.681,80h76.637
	c0.727,0,1.317-0.59,1.317-1.317C79.635,77.957,79.045,77.367,78.318,77.367z M66.786,66.682V57.7l9.247-8.865
	c0.672,2.039,1.085,4.109,1.085,6.073C77.117,60.492,73.906,66.114,66.786,66.682z M75.007,46.172l-8.221,7.883V34.861
	C69.026,36.302,72.697,40.915,75.007,46.172z M64.153,35.057v19.025l-8.013-7.682C58.371,41.306,61.898,36.717,64.153,35.057z
	 M54.067,54.908c0-1.869,0.4-3.861,1.05-5.842l9.035,8.662v8.943C57.2,65.997,54.067,60.43,54.067,54.908z M5.892,28.127
	l17.69,16.96v13.128L3.451,38.908C3.665,35.452,4.565,31.77,5.892,28.127z M12.711,14.683l10.871,10.871v15.887L6.936,25.481
	C8.547,21.66,10.569,17.958,12.711,14.683z M43.266,25.043L26.215,41.391V25.509l11.187-11.187
	C39.568,17.53,41.626,21.191,43.266,25.043z M46.762,38.549c-0.087,0.051-0.18,0.09-0.256,0.163L26.215,58.172V45.037l18.098-17.352
	C45.623,31.271,46.519,34.959,46.762,38.549z M26.215,62.714V61.82l20.567-19.726C46.172,52.346,39.734,62.207,26.215,62.714z
	 M35.887,12.172c-0.056,0.041-0.121,0.064-0.172,0.114l-9.5,9.5V2.87C28.595,3.784,32.283,7.284,35.887,12.172z M23.582,3.046
	v18.786l-9.361-9.361C17.605,7.721,21.094,4.193,23.582,3.046z M3.483,42.586l20.1,19.277v0.834
	C10.575,62.006,4.258,52.549,3.483,42.586z"/>
<path fill="#353A3E" d="M78.318,77.367H66.786v-8.048c7.69-0.544,12.965-6.309,12.965-14.411c0-9.539-9.159-23.147-14.159-23.147
	c-4.875,0-14.158,13.837-14.158,23.147c0,8.017,5.161,13.754,12.719,14.4v8.059H26.215V65.352
	c11.75-0.452,23.254-8.196,23.254-24.878C49.468,23.095,32.76,0,25.118,0c-7.445,0-24.35,23.52-24.35,40.474
	c0,16.474,11.218,24.227,22.814,24.853v12.04H1.681c-0.727,0-1.316,0.59-1.316,1.317C0.365,79.41,0.954,80,1.681,80h76.637
	c0.727,0,1.317-0.59,1.317-1.317C79.635,77.957,79.045,77.367,78.318,77.367z M66.786,66.682V57.7l9.247-8.865
	c0.672,2.039,1.085,4.109,1.085,6.073C77.117,60.492,73.906,66.114,66.786,66.682z M75.007,46.172l-8.221,7.883V34.861
	C69.026,36.302,72.697,40.915,75.007,46.172z M64.153,35.057v19.025l-8.013-7.682C58.371,41.306,61.898,36.717,64.153,35.057z
	 M54.067,54.908c0-1.869,0.4-3.861,1.05-5.842l9.035,8.662v8.943C57.2,65.997,54.067,60.43,54.067,54.908z M5.892,28.127
	l17.69,16.96v13.128L3.451,38.908C3.665,35.452,4.565,31.77,5.892,28.127z M12.711,14.683l10.871,10.871v15.887L6.936,25.481
	C8.547,21.66,10.569,17.958,12.711,14.683z M43.266,25.043L26.215,41.391V25.509l11.187-11.187
	C39.568,17.53,41.626,21.191,43.266,25.043z M46.762,38.549c-0.087,0.051-0.18,0.09-0.256,0.163L26.215,58.172V45.037l18.098-17.352
	C45.623,31.271,46.519,34.959,46.762,38.549z M26.215,62.714V61.82l20.567-19.726C46.172,52.346,39.734,62.207,26.215,62.714z
	 M35.887,12.172c-0.056,0.041-0.121,0.064-0.172,0.114l-9.5,9.5V2.87C28.595,3.784,32.283,7.284,35.887,12.172z M23.582,3.046
	v18.786l-9.361-9.361C17.605,7.721,21.094,4.193,23.582,3.046z M3.483,42.586l20.1,19.277v0.834
	C10.575,62.006,4.258,52.549,3.483,42.586z"/>
</svg>
